# Blender 3.1.0
# www.blender.org
mtllib ExitBox.mtl
o Cube
v 1.000000 -0.467912 -1.000000
v 1.000000 0.467912 -1.000000
v 1.000000 -0.467912 1.000000
v 1.000000 0.467912 1.000000
v -1.000000 -0.467912 -1.000000
v -1.000000 0.467912 -1.000000
v -1.000000 -0.467912 1.000000
v -1.000000 0.467912 1.000000
vn -0.0000 -1.0000 -0.0000
vn -0.0000 -0.0000 1.0000
vn -1.0000 -0.0000 -0.0000
vn -0.0000 1.0000 -0.0000
vn 1.0000 -0.0000 -0.0000
vn -0.0000 -0.0000 -1.0000
vt 0.656020 0.652939
vt 0.656143 0.028990
vt 0.014399 0.026686
vt 0.349872 0.649506
vt 0.656143 0.331636
vt 0.014399 0.326463
vt 0.656020 0.672657
vt 0.327094 0.672843
vt 0.344334 0.028990
vt 0.327094 0.975339
vt 0.349872 0.676756
vt 0.344334 0.331636
vt 0.675738 0.652939
vt 0.344321 0.024632
vt 0.327372 0.026686
vt 0.344321 0.328262
vt 0.322622 0.649506
vt 0.327372 0.326463
vt 0.675738 0.672657
vt 0.014271 0.672843
vt 0.656286 0.024632
vt 0.014272 0.975339
vt 0.656286 0.328262
vt 0.322622 0.676756
s 0
usemtl Material
f 1/1/1 3/7/1 7/19/1 5/13/1
f 4/10/2 8/22/2 7/20/2 3/8/2
f 8/23/3 6/16/3 5/14/3 7/21/3
f 6/17/4 8/24/4 4/11/4 2/4/4
f 2/5/5 4/12/5 3/9/5 1/2/5
f 6/18/6 2/6/6 1/3/6 5/15/6
